<svg width="30" height="30" viewBox="0 0 30 30" fill="none" xmlns="http://www.w3.org/2000/svg">
<g clip-path="url(#clip0_129_96)">
<path d="M2.28584 15.4744L2.28595 15.4745C2.42375 15.6125 2.60723 15.6905 2.80461 15.694L2.28584 15.4744ZM2.28584 15.4744C1.99308 15.1817 1.99204 14.7051 2.28297 14.4109C2.28531 14.4086 2.28753 14.4064 2.28963 14.4042L14.5242 2.17012L14.5243 2.17001M2.28584 15.4744L14.5243 2.17001M14.5243 2.17001C14.6668 2.02726 14.8552 1.94922 15.0572 1.94922C15.2588 1.94922 15.4473 2.02723 15.5901 2.17011L15.764 1.99623M14.5243 2.17001L15.764 1.99623M15.764 1.99623L15.5901 2.17011L27.8246 14.4043L27.8303 14.4098L15.764 1.99623ZM27.2953 15.6958C27.4968 15.6958 27.6855 15.6176 27.8284 15.4747C27.8284 15.4747 27.8285 15.4747 27.8285 15.4747M27.2953 15.6958L28.0053 15.6514L27.8285 15.4747M27.2953 15.6958H25.9641C25.3406 15.6958 24.8352 16.2011 24.8352 16.8247V26.7092C24.8352 27.3841 24.2857 27.9336 23.6105 27.9336H19.9516M27.2953 15.6958L19.9516 27.9336M27.8285 15.4747C28.121 15.1819 28.1221 14.7052 27.8311 14.4106L27.8285 15.4747ZM19.9516 27.9336V22.002C19.9516 20.0816 18.3898 18.5195 16.4691 18.5195H13.6452C11.7246 18.5195 10.1624 20.0816 10.1624 22.002V27.9336H6.5036C5.82863 27.9336 5.27891 27.3841 5.27891 26.7092V16.8247C5.27891 16.2011 4.77353 15.6958 4.15 15.6958H2.84965C2.83578 15.6949 2.82079 15.6942 2.80475 15.694C2.80479 15.694 2.80484 15.694 2.80488 15.694L19.9516 27.9336ZM29.4142 12.8007L29.4141 12.8006L17.1868 0.573767C17.1868 0.573753 17.1868 0.573739 17.1868 0.573725C16.6182 0.00498039 15.8611 -0.308594 15.0572 -0.308594C14.2532 -0.308594 13.4961 0.00500119 12.9273 0.573728L0.696091 12.8047L0.872866 12.9815L0.696089 12.8047C0.692957 12.8079 0.687225 12.8136 0.68129 12.8198C-0.485036 13.9949 -0.482455 15.8994 0.688994 17.0708C1.22281 17.6049 1.92781 17.9148 2.68102 17.949C2.71511 17.952 2.74924 17.9536 2.78358 17.9536H3.02109V26.7092C3.02109 28.6296 4.58324 30.1915 6.5036 30.1915H11.2914C11.9149 30.1915 12.4203 29.6858 12.4203 29.0626V22.002C12.4203 21.3269 12.97 20.7773 13.6452 20.7773H16.4691C17.1443 20.7773 17.6938 21.3268 17.6938 22.002V29.0626C17.6938 29.6858 18.1992 30.1915 18.8227 30.1915H23.6105C25.5311 30.1915 27.093 28.6296 27.093 26.7092V17.9536H27.2953C28.0991 17.9536 28.8562 17.64 29.4251 17.071L29.4251 17.071C30.5984 15.8972 30.5989 13.9879 29.4269 12.8134L29.4247 12.8112C29.4246 12.8111 29.4245 12.811 29.4244 12.8109L29.4142 12.8007ZM2.32068 14.3645L2.32066 14.3646C2.32068 14.3645 2.32071 14.3645 2.32073 14.3645L2.32068 14.3645Z" fill="black" stroke="black" stroke-width="0.5"/>
</g>
<defs>
<clipPath id="clip0_129_96">
<rect width="30" height="30" fill="white"/>
</clipPath>
</defs>
</svg>
