<svg width="30" height="30" viewBox="0 0 30 30" fill="none" xmlns="http://www.w3.org/2000/svg">
<g clip-path="url(#clip0_129_96)">
<path d="M29.4244 12.811L29.4244 12.8109L17.1868 0.573767C17.1868 0.573753 17.1868 0.573739 17.1868 0.573725C16.6182 0.00498051 15.8611 -0.308594 15.0572 -0.308594C14.2532 -0.308594 13.4961 0.00500118 12.9273 0.573728L0.696091 12.8047L0.87138 12.98L0.696089 12.8047L0.695465 12.8054C0.692233 12.8086 0.68685 12.814 0.681289 12.8198C-0.485022 13.9949 -0.482455 15.8993 0.688952 17.0708C1.22277 17.6048 1.92779 17.9148 2.68101 17.949C2.7151 17.952 2.74923 17.9536 2.78358 17.9536H3.02109V26.7092C3.02109 28.6296 4.58324 30.1915 6.5036 30.1915H11.2914C11.9149 30.1915 12.4203 29.6858 12.4203 29.0626V22.002C12.4203 21.3269 12.97 20.7773 13.6452 20.7773H16.4691C17.1443 20.7773 17.6938 21.3268 17.6938 22.002V29.0626C17.6938 29.6858 18.1992 30.1915 18.8227 30.1915H23.6105C25.5311 30.1915 27.093 28.6296 27.093 26.7092V17.9536H27.2953C28.0991 17.9536 28.8562 17.64 29.4251 17.071L29.4251 17.071C30.5984 15.8972 30.5989 13.9879 29.4269 12.8134L29.4269 12.8134C29.4261 12.8126 29.4253 12.8118 29.4244 12.8109L29.4244 12.811ZM29.4244 12.811C29.4187 12.8054 29.4104 12.7978 29.3999 12.79L29.2636 12.9717L29.2499 12.99L29.4268 12.8134C29.4261 12.8127 29.4252 12.8119 29.4244 12.811ZM2.28584 15.4744L2.28595 15.4745C2.42375 15.6125 2.60723 15.6905 2.80461 15.694L2.28584 15.4744ZM2.28584 15.4744C1.99309 15.1817 1.99204 14.7052 2.28296 14.4109C2.28529 14.4086 2.28751 14.4064 2.28961 14.4042L14.5242 2.17012L14.5243 2.17001M2.28584 15.4744L14.5243 2.17001M14.5243 2.17001C14.6668 2.02726 14.8552 1.94922 15.0572 1.94922C15.2588 1.94922 15.4473 2.02723 15.5901 2.17011L27.8246 14.4043L27.8303 14.4098L14.5243 2.17001ZM19.9516 27.9336H23.6105C24.2857 27.9336 24.8352 27.3841 24.8352 26.7092V16.8247C24.8352 16.2011 25.3406 15.6958 25.9641 15.6958H27.2953C27.4968 15.6958 27.6855 15.6176 27.8284 15.4747C27.8284 15.4747 27.8285 15.4747 27.8285 15.4747M19.9516 27.9336L28.0053 15.6514L27.8285 15.4747M19.9516 27.9336V22.002C19.9516 20.0816 18.3898 18.5195 16.4691 18.5195H13.6452C11.7246 18.5195 10.1624 20.0816 10.1624 22.002V27.9336H6.5036C5.82863 27.9336 5.27891 27.3841 5.27891 26.7092V16.8247C5.27891 16.2011 4.77353 15.6958 4.15 15.6958H2.84965C2.83578 15.6949 2.82079 15.6942 2.80475 15.694C2.80479 15.694 2.80484 15.694 2.80488 15.694L19.9516 27.9336ZM27.8285 15.4747C28.121 15.1819 28.1221 14.7052 27.8311 14.4106L27.8285 15.4747ZM2.32068 14.3645L2.32067 14.3646C2.32068 14.3645 2.3207 14.3645 2.32071 14.3645L2.32068 14.3645ZM2.28629 14.4075L2.28698 14.4068C2.28675 14.4071 2.28652 14.4073 2.28629 14.4075Z" fill="black" stroke="black" stroke-width="0.5"/>
</g>
<defs>
<clipPath id="clip0_129_96">
<rect width="30" height="30" fill="white"/>
</clipPath>
</defs>
</svg>
