<svg width="24" height="25" viewBox="0 0 24 25" fill="none" xmlns="http://www.w3.org/2000/svg">
<path d="M23.7728 23.5001L17.5762 17.2573C19.1989 15.4522 20.1959 13.0651 20.1959 10.4383C20.1951 4.81905 15.6745 0.264404 10.0976 0.264404C4.52065 0.264404 0 4.81905 0 10.4383C0 16.0575 4.52065 20.6122 10.0976 20.6122C12.5072 20.6122 14.7172 19.7588 16.4532 18.3402L22.6738 24.6077C22.9769 24.9134 23.469 24.9134 23.7721 24.6077C24.0759 24.302 24.0759 23.8058 23.7728 23.5001ZM10.0976 19.0469C5.37888 19.0469 1.55365 15.1927 1.55365 10.4383C1.55365 5.68389 5.37888 1.82972 10.0976 1.82972C14.8163 1.82972 18.6415 5.68389 18.6415 10.4383C18.6415 15.1927 14.8163 19.0469 10.0976 19.0469Z" fill="#A04955"/>
</svg>
