<svg width="20" height="12" viewBox="0 0 20 12" fill="none" xmlns="http://www.w3.org/2000/svg">
<path d="M9.21862 0.444077L0.318533 9.34433C0.112518 9.55018 -0.000976563 9.82498 -0.000976563 10.118C-0.000976563 10.411 0.112518 10.6858 0.318533 10.8916L0.973812 11.5471C1.4008 11.9736 2.09478 11.9736 2.52112 11.5471L9.99488 4.07332L17.4769 11.5554C17.6829 11.7612 17.9576 11.8749 18.2504 11.8749C18.5436 11.8749 18.8182 11.7612 19.0244 11.5554L19.6795 10.8999C19.8855 10.6939 19.999 10.4193 19.999 10.1263C19.999 9.83327 19.8855 9.55847 19.6795 9.35262L10.7713 0.444077C10.5646 0.237737 10.2887 0.124405 9.99537 0.125055C9.7009 0.124405 9.42513 0.237737 9.21862 0.444077Z" fill="#A04955"/>
</svg>
