<svg width="20" height="12" viewBox="0 0 20 12" fill="none" xmlns="http://www.w3.org/2000/svg">
<path d="M10.7799 11.5556L19.68 2.65536C19.886 2.44951 19.9995 2.17472 19.9995 1.88171C19.9995 1.58871 19.886 1.31391 19.68 1.10806L19.0247 0.452619C18.5977 0.0261187 17.9038 0.0261187 17.4774 0.452619L10.0037 7.92638L2.52161 0.444326C2.31559 0.238475 2.04096 0.124817 1.74812 0.124817C1.45495 0.124817 1.18032 0.238475 0.974139 0.444326L0.319022 1.09977C0.113009 1.30578 -0.000485897 1.58041 -0.000485897 1.87342C-0.000485897 2.16643 0.113009 2.44122 0.319022 2.64707L9.22724 11.5556C9.43391 11.762 9.70984 11.8753 10.0032 11.8746C10.2976 11.8753 10.5734 11.762 10.7799 11.5556Z" fill="#A04955"/>
</svg>
